<?xml version="1.0" encoding="UTF-8"?>
<svg width="20" height="20" viewBox="0 0 20 20" fill="none" xmlns="http://www.w3.org/2000/svg">
  <path d="M19.8055 10.2303C19.8055 9.55056 19.7491 8.86711 19.6274 8.19836H10.2002V12.0492H15.6015C15.3775 13.2911 14.6587 14.3898 13.6087 15.0879V17.5866H16.6087C18.7685 15.8449 19.8055 13.2728 19.8055 10.2303Z" fill="#4285F4"/>
  <path d="M10.2002 20.0006C12.9502 20.0006 15.2684 19.1151 16.6087 17.5865L13.6087 15.0879C12.7137 15.6979 11.5521 16.0433 10.2002 16.0433C7.65533 16.0433 5.46933 14.2832 4.59733 11.9169H1.51733V14.4927C2.86933 17.8695 6.34733 20.0006 10.2002 20.0006Z" fill="#34A853"/>
  <path d="M4.59733 11.9169C4.40933 11.3169 4.30933 10.6731 4.30933 10.0001C4.30933 9.32712 4.40933 8.68331 4.59733 8.08331V5.50751H1.51733C0.891333 6.98831 0.533333 8.61831 0.533333 10.0001C0.533333 11.3819 0.891333 13.0119 1.51733 14.4927L4.59733 11.9169Z" fill="#FBBC04"/>
  <path d="M10.2002 3.95805C11.7137 3.93605 13.1714 4.47247 14.3176 5.45722L17.2191 2.55577C15.5034 0.935978 13.3614 -0.027433 10.2002 0.000539477C6.34733 0.000539477 2.86933 2.13159 1.51733 5.50831L4.59733 8.08414C5.46933 5.71783 7.65533 3.95805 10.2002 3.95805Z" fill="#EA4335"/>
</svg> 