<?xml version="1.0" encoding="UTF-8"?>
<svg width="120" height="120" viewBox="0 0 120 120" fill="none" xmlns="http://www.w3.org/2000/svg">
  <!-- Background Circle -->
  <circle cx="60" cy="60" r="55" fill="#E3F2FD"/>
  
  <!-- Medical Cross -->
  <path d="M60 30V90" stroke="#1976D2" stroke-width="8" stroke-linecap="round"/>
  <path d="M30 60H90" stroke="#1976D2" stroke-width="8" stroke-linecap="round"/>
  
  <!-- Book Symbol -->
  <path d="M45 40C45 40 50 35 60 35C70 35 75 40 75 40V80C75 80 70 85 60 85C50 85 45 80 45 80V40Z" fill="#1976D2" fill-opacity="0.1"/>
  
  <!-- Heart Symbol -->
  <path d="M60 95C60 95 70 85 70 75C70 65 60 65 60 75C60 65 50 65 50 75C50 85 60 95 60 95Z" fill="#1976D2"/>
</svg> 